<svg xmlns="http://www.w3.org/2000/svg" viewBox="0 0 512 512" role="img" aria-label="TANGO-CHO2 cute icon">
  <defs>
    <linearGradient id="bg" x1="0" y1="0" x2="1" y2="1">
      <stop offset="0" stop-color="#fffdf8"/>
      <stop offset="1" stop-color="#fff4e6"/>
    </linearGradient>
    <filter id="shadow" x="-20%" y="-20%" width="140%" height="160%">
      <feDropShadow dx="0" dy="12" stdDeviation="12" flood-color="#8e6f4e" flood-opacity=".18"/>
    </filter>
    <filter id="soft" x="-20%" y="-20%" width="140%" height="160%">
      <feDropShadow dx="0" dy="5" stdDeviation="5" flood-color="#5d4d3e" flood-opacity=".13"/>
    </filter>
  </defs>

  <rect x="16" y="16" width="480" height="480" rx="108" fill="url(#bg)"/>
  <circle cx="452" cy="58" r="94" fill="#ffe6c8" opacity=".85"/>
  <circle cx="36" cy="504" r="170" fill="#c9dbc9" opacity=".9"/>

  <g transform="rotate(7 270 284)" filter="url(#shadow)">
    <rect x="106" y="156" width="332" height="252" rx="46" fill="#eee2cf"/>
    <rect x="122" y="139" width="332" height="252" rx="46" fill="#f8efe2"/>
    <rect x="140" y="121" width="332" height="252" rx="46" fill="#ffffff"/>
  </g>

  <g filter="url(#soft)">
    <circle cx="158" cy="151" r="28" fill="#f2e5d3"/>
    <path d="M102 173c2-56 43-92 91-92 41 0 76 24 89 62" fill="none" stroke="#315d55" stroke-width="24" stroke-linecap="round"/>
  </g>

  <path d="M379 122h46a14 14 0 0 1 14 14v68l-30-18-30 18z" fill="#ef6b4a" filter="url(#soft)"/>

  <g stroke="#f5b43d" stroke-width="14" stroke-linecap="round">
    <path d="M397 78l7-30"/>
    <path d="M437 92l24-20"/>
    <path d="M450 129l30-3"/>
  </g>

  <g fill="none" stroke="#2a2824" stroke-width="14" stroke-linecap="round">
    <path d="M225 218q18-25 36 0"/>
    <path d="M326 218q18-25 36 0"/>
    <path d="M270 246q24 26 48 0"/>
  </g>
  <circle cx="213" cy="244" r="13" fill="#ffc6a6"/>
  <circle cx="369" cy="244" r="13" fill="#ffc6a6"/>

  <text x="225" y="334" text-anchor="middle" font-family="Arial Rounded MT Bold, Arial, sans-serif" font-size="88" font-weight="900" fill="#ef6b4a">T</text>
  <text x="330" y="334" text-anchor="middle" font-family="Arial Rounded MT Bold, Arial, sans-serif" font-size="88" font-weight="900" fill="#4f7c70">C</text>
</svg>
